<svg xmlns="http://www.w3.org/2000/svg" xmlns:xlink="http://www.w3.org/1999/xlink" width="1080" zoomAndPan="magnify" viewBox="0 0 810 809.999993" height="1080" preserveAspectRatio="xMidYMid meet" version="1.0"><defs><clipPath id="f9b5dc1779"><path d="M 184.394531 58.644531 L 625.589844 58.644531 L 625.589844 751.339844 L 184.394531 751.339844 Z M 184.394531 58.644531 " clip-rule="nonzero"/></clipPath><clipPath id="4f68aac933"><path d="M 282.34375 382.953125 L 523 382.953125 L 523 620.71875 L 282.34375 620.71875 Z M 282.34375 382.953125 " clip-rule="nonzero"/></clipPath></defs><path fill="#ffffff" d="M 349.300781 511.898438 C 320.546875 505.902344 291.890625 512.929688 264.511719 521.632812 C 254.609375 524.777344 246.707031 525.425781 239.632812 524.019531 C 239.386719 526.707031 239.289062 528.929688 239.289062 530.742188 C 239.289062 575 256.527344 616.617188 287.824219 647.910156 C 319.117188 679.210938 360.734375 696.445312 404.992188 696.445312 C 449.25 696.445312 490.867188 679.210938 522.160156 647.910156 C 546.945312 623.128906 562.910156 591.882812 568.480469 557.96875 C 557.523438 563.335938 544.9375 564.316406 532.722656 564.40625 C 492.085938 564.695312 451.402344 556.007812 414.429688 539.132812 C 392.96875 529.339844 372.398438 516.710938 349.300781 511.898438 " fill-opacity="1" fill-rule="nonzero"/><g clip-path="url(#f9b5dc1779)"><path fill="#ffffff" d="M 404.992188 730.636719 C 294.769531 730.636719 205.101562 640.964844 205.101562 530.742188 C 205.101562 484.96875 241.007812 393.382812 308.953125 265.886719 C 348.203125 192.226562 387.859375 126.042969 404.992188 97.9375 C 422.128906 126.042969 461.785156 192.226562 501.03125 265.886719 C 568.976562 393.382812 604.886719 484.96875 604.886719 530.742188 C 604.886719 640.964844 515.214844 730.636719 404.992188 730.636719 Z M 616.167969 475.140625 C 610.609375 455.503906 602.460938 432.613281 591.960938 407.101562 C 574.390625 364.433594 549.929688 313.609375 519.253906 256.046875 C 467.125 158.238281 414.300781 73.539062 413.773438 72.695312 L 404.992188 58.644531 L 396.214844 72.695312 C 395.6875 73.539062 342.859375 158.238281 290.734375 256.046875 C 260.058594 313.609375 235.59375 364.433594 218.027344 407.101562 C 207.519531 432.613281 199.378906 455.503906 193.820312 475.140625 C 187.566406 497.238281 184.394531 515.945312 184.394531 530.742188 C 184.394531 560.519531 190.230469 589.410156 201.738281 616.613281 C 212.84375 642.878906 228.753906 666.46875 249.007812 686.726562 C 269.261719 706.984375 292.855469 722.886719 319.121094 733.996094 C 346.328125 745.507812 375.214844 751.339844 404.992188 751.339844 C 434.769531 751.339844 463.660156 745.507812 490.863281 733.996094 C 517.132812 722.886719 540.722656 706.984375 560.980469 686.726562 C 581.238281 666.46875 597.140625 642.878906 608.25 616.613281 C 619.753906 589.410156 625.589844 560.519531 625.589844 530.742188 C 625.589844 515.945312 622.417969 497.238281 616.167969 475.140625 " fill-opacity="1" fill-rule="nonzero"/></g><path fill="#ffffff" d="M 410.921875 566.625 C 410.585938 566.625 410.253906 566.65625 409.921875 566.722656 C 409.59375 566.789062 409.273438 566.886719 408.960938 567.015625 C 408.648438 567.140625 408.355469 567.300781 408.074219 567.488281 C 407.792969 567.671875 407.535156 567.886719 407.296875 568.125 C 407.058594 568.359375 406.847656 568.621094 406.660156 568.898438 C 406.472656 569.179688 406.316406 569.472656 406.1875 569.785156 C 406.058594 570.097656 405.960938 570.417969 405.894531 570.746094 C 405.828125 571.078125 405.792969 571.410156 405.792969 571.746094 C 405.792969 572.082031 405.828125 572.414062 405.890625 572.746094 C 405.957031 573.074219 406.054688 573.398438 406.183594 573.707031 C 406.3125 574.019531 406.46875 574.3125 406.65625 574.59375 C 406.84375 574.875 407.054688 575.132812 407.292969 575.371094 C 407.53125 575.609375 407.789062 575.820312 408.070312 576.007812 C 408.351562 576.195312 408.644531 576.351562 408.957031 576.480469 C 409.265625 576.609375 409.585938 576.707031 409.917969 576.773438 C 410.246094 576.839844 410.582031 576.871094 410.917969 576.871094 C 411.253906 576.871094 411.585938 576.839844 411.917969 576.773438 C 412.246094 576.710938 412.566406 576.613281 412.878906 576.484375 C 413.1875 576.355469 413.484375 576.195312 413.765625 576.011719 C 414.042969 575.824219 414.304688 575.609375 414.542969 575.371094 C 414.777344 575.132812 414.992188 574.875 415.179688 574.597656 C 415.367188 574.316406 415.523438 574.019531 415.652344 573.710938 C 415.78125 573.398438 415.878906 573.078125 415.945312 572.75 C 416.007812 572.417969 416.042969 572.085938 416.042969 571.75 C 416.042969 571.414062 416.007812 571.078125 415.941406 570.75 C 415.878906 570.421875 415.78125 570.101562 415.652344 569.789062 C 415.523438 569.480469 415.363281 569.183594 415.179688 568.90625 C 414.992188 568.625 414.78125 568.367188 414.542969 568.128906 C 414.304688 567.890625 414.046875 567.679688 413.765625 567.492188 C 413.488281 567.304688 413.191406 567.144531 412.882812 567.015625 C 412.570312 566.886719 412.25 566.789062 411.921875 566.726562 C 411.589844 566.660156 411.257812 566.625 410.921875 566.625 Z M 410.921875 566.625 " fill-opacity="1" fill-rule="nonzero"/><path fill="#ffffff" d="M 396.984375 571.75 C 396.984375 572.085938 396.953125 572.417969 396.886719 572.75 C 396.820312 573.078125 396.722656 573.398438 396.59375 573.710938 C 396.464844 574.019531 396.308594 574.316406 396.121094 574.597656 C 395.933594 574.875 395.722656 575.132812 395.484375 575.371094 C 395.246094 575.609375 394.988281 575.824219 394.707031 576.007812 C 394.429688 576.195312 394.132812 576.355469 393.824219 576.484375 C 393.511719 576.613281 393.191406 576.707031 392.863281 576.773438 C 392.535156 576.839844 392.199219 576.871094 391.863281 576.871094 C 391.527344 576.871094 391.195312 576.839844 390.867188 576.773438 C 390.535156 576.707031 390.214844 576.613281 389.90625 576.484375 C 389.59375 576.355469 389.300781 576.195312 389.019531 576.007812 C 388.742188 575.824219 388.480469 575.609375 388.246094 575.371094 C 388.007812 575.132812 387.792969 574.875 387.609375 574.597656 C 387.421875 574.316406 387.261719 574.019531 387.132812 573.710938 C 387.007812 573.398438 386.910156 573.078125 386.84375 572.75 C 386.777344 572.417969 386.746094 572.085938 386.746094 571.75 C 386.746094 571.414062 386.777344 571.078125 386.84375 570.75 C 386.910156 570.417969 387.007812 570.097656 387.132812 569.789062 C 387.261719 569.476562 387.421875 569.183594 387.609375 568.902344 C 387.792969 568.621094 388.007812 568.363281 388.246094 568.125 C 388.480469 567.886719 388.742188 567.675781 389.019531 567.488281 C 389.300781 567.300781 389.59375 567.144531 389.90625 567.015625 C 390.214844 566.886719 390.535156 566.789062 390.867188 566.722656 C 391.195312 566.65625 391.527344 566.625 391.863281 566.625 C 392.199219 566.625 392.535156 566.65625 392.863281 566.722656 C 393.191406 566.789062 393.511719 566.886719 393.824219 567.015625 C 394.132812 567.144531 394.429688 567.300781 394.707031 567.488281 C 394.988281 567.675781 395.246094 567.886719 395.484375 568.125 C 395.722656 568.363281 395.933594 568.621094 396.121094 568.902344 C 396.308594 569.183594 396.464844 569.476562 396.59375 569.789062 C 396.722656 570.097656 396.820312 570.417969 396.886719 570.75 C 396.953125 571.078125 396.984375 571.414062 396.984375 571.75 Z M 396.984375 571.75 " fill-opacity="1" fill-rule="nonzero"/><path fill="#ffffff" d="M 376.476562 567.992188 L 348.890625 567.992188 C 348.390625 567.992188 347.914062 568.085938 347.453125 568.277344 C 346.992188 568.46875 346.585938 568.738281 346.230469 569.089844 C 345.878906 569.445312 345.609375 569.851562 345.417969 570.3125 C 345.226562 570.769531 345.132812 571.25 345.132812 571.75 C 345.132812 572.246094 345.226562 572.726562 345.417969 573.1875 C 345.609375 573.648438 345.878906 574.054688 346.230469 574.40625 C 346.585938 574.757812 346.992188 575.03125 347.453125 575.222656 C 347.914062 575.410156 348.390625 575.507812 348.890625 575.507812 L 376.476562 575.507812 C 376.972656 575.507812 377.453125 575.410156 377.914062 575.222656 C 378.375 575.03125 378.78125 574.757812 379.132812 574.40625 C 379.484375 574.054688 379.757812 573.648438 379.945312 573.1875 C 380.136719 572.726562 380.234375 572.246094 380.234375 571.75 C 380.234375 571.25 380.136719 570.769531 379.945312 570.3125 C 379.757812 569.851562 379.484375 569.445312 379.132812 569.089844 C 378.78125 568.738281 378.375 568.46875 377.914062 568.277344 C 377.453125 568.085938 376.972656 567.992188 376.476562 567.992188 Z M 376.476562 567.992188 " fill-opacity="1" fill-rule="nonzero"/><path fill="#ffffff" d="M 455.863281 567.992188 L 427.929688 567.992188 C 427.433594 567.992188 426.953125 568.085938 426.492188 568.277344 C 426.03125 568.46875 425.625 568.738281 425.273438 569.089844 C 424.921875 569.445312 424.648438 569.851562 424.457031 570.3125 C 424.265625 570.769531 424.171875 571.25 424.171875 571.75 C 424.171875 572.246094 424.265625 572.726562 424.457031 573.1875 C 424.648438 573.648438 424.921875 574.054688 425.273438 574.40625 C 425.625 574.757812 426.03125 575.03125 426.492188 575.222656 C 426.953125 575.410156 427.433594 575.507812 427.929688 575.507812 L 455.863281 575.507812 C 456.359375 575.507812 456.839844 575.410156 457.300781 575.222656 C 457.761719 575.03125 458.167969 574.757812 458.519531 574.40625 C 458.871094 574.054688 459.144531 573.648438 459.335938 573.1875 C 459.527344 572.726562 459.621094 572.246094 459.621094 571.75 C 459.621094 571.25 459.527344 570.769531 459.335938 570.3125 C 459.144531 569.851562 458.871094 569.445312 458.519531 569.089844 C 458.167969 568.738281 457.761719 568.46875 457.300781 568.277344 C 456.839844 568.085938 456.359375 567.992188 455.863281 567.992188 Z M 455.863281 567.992188 " fill-opacity="1" fill-rule="nonzero"/><path fill="#ffffff" d="M 455.863281 428.386719 L 348.890625 428.386719 C 348.390625 428.386719 347.914062 428.484375 347.453125 428.671875 C 346.992188 428.863281 346.585938 429.136719 346.230469 429.488281 C 345.878906 429.839844 345.609375 430.246094 345.417969 430.707031 C 345.226562 431.167969 345.132812 431.648438 345.132812 432.144531 C 345.132812 432.644531 345.226562 433.125 345.417969 433.585938 C 345.609375 434.042969 345.878906 434.449219 346.230469 434.804688 C 346.585938 435.15625 346.992188 435.425781 347.453125 435.617188 C 347.914062 435.808594 348.390625 435.90625 348.890625 435.90625 L 455.863281 435.90625 C 456.359375 435.90625 456.839844 435.808594 457.300781 435.617188 C 457.761719 435.425781 458.167969 435.15625 458.519531 434.804688 C 458.871094 434.449219 459.144531 434.042969 459.335938 433.585938 C 459.527344 433.125 459.621094 432.644531 459.621094 432.144531 C 459.621094 431.648438 459.527344 431.167969 459.335938 430.707031 C 459.144531 430.246094 458.871094 429.839844 458.519531 429.488281 C 458.167969 429.136719 457.761719 428.863281 457.300781 428.671875 C 456.839844 428.484375 456.359375 428.386719 455.863281 428.386719 Z M 455.863281 428.386719 " fill-opacity="1" fill-rule="nonzero"/><g clip-path="url(#4f68aac933)"><path fill="#ffffff" d="M 515.933594 545.566406 C 516.359375 545.566406 516.777344 545.523438 517.191406 545.441406 C 517.605469 545.359375 518.007812 545.234375 518.398438 545.074219 C 518.789062 544.910156 519.160156 544.710938 519.511719 544.476562 C 519.863281 544.242188 520.191406 543.976562 520.488281 543.675781 C 520.789062 543.378906 521.054688 543.050781 521.289062 542.699219 C 521.523438 542.347656 521.722656 541.976562 521.886719 541.585938 C 522.046875 541.195312 522.171875 540.792969 522.253906 540.378906 C 522.335938 539.964844 522.378906 539.546875 522.378906 539.121094 L 522.378906 529.105469 C 522.378906 528.683594 522.335938 528.265625 522.253906 527.847656 C 522.171875 527.433594 522.046875 527.03125 521.886719 526.640625 C 521.722656 526.25 521.523438 525.878906 521.289062 525.527344 C 521.054688 525.175781 520.789062 524.851562 520.488281 524.550781 C 520.191406 524.253906 519.863281 523.984375 519.511719 523.75 C 519.160156 523.515625 518.789062 523.316406 518.398438 523.15625 C 518.007812 522.992188 517.605469 522.871094 517.191406 522.789062 C 516.777344 522.707031 516.359375 522.664062 515.933594 522.664062 L 491.953125 522.664062 L 491.953125 511.972656 L 515.398438 511.972656 C 515.820312 511.972656 516.242188 511.929688 516.65625 511.847656 C 517.070312 511.761719 517.472656 511.640625 517.863281 511.480469 C 518.253906 511.316406 518.625 511.117188 518.976562 510.882812 C 519.328125 510.648438 519.652344 510.382812 519.953125 510.082031 C 520.253906 509.78125 520.519531 509.457031 520.753906 509.105469 C 520.988281 508.753906 521.1875 508.382812 521.351562 507.992188 C 521.511719 507.601562 521.632812 507.199219 521.71875 506.785156 C 521.800781 506.371094 521.839844 505.949219 521.84375 505.527344 L 521.84375 495.511719 C 521.839844 495.089844 521.800781 494.671875 521.71875 494.253906 C 521.632812 493.839844 521.511719 493.4375 521.351562 493.046875 C 521.1875 492.65625 520.988281 492.285156 520.753906 491.933594 C 520.519531 491.582031 520.253906 491.257812 519.953125 490.957031 C 519.652344 490.660156 519.328125 490.390625 518.976562 490.15625 C 518.625 489.921875 518.253906 489.722656 517.863281 489.5625 C 517.472656 489.398438 517.070312 489.277344 516.65625 489.195312 C 516.242188 489.109375 515.820312 489.070312 515.398438 489.070312 L 491.953125 489.070312 L 491.953125 478.722656 L 515.398438 478.722656 C 515.820312 478.722656 516.242188 478.683594 516.65625 478.597656 C 517.070312 478.515625 517.472656 478.394531 517.863281 478.230469 C 518.253906 478.070312 518.625 477.871094 518.976562 477.636719 C 519.328125 477.402344 519.652344 477.132812 519.953125 476.835938 C 520.253906 476.535156 520.519531 476.210938 520.753906 475.859375 C 520.988281 475.507812 521.1875 475.136719 521.351562 474.746094 C 521.511719 474.355469 521.632812 473.953125 521.71875 473.539062 C 521.800781 473.125 521.839844 472.703125 521.84375 472.28125 L 521.84375 462.265625 C 521.839844 461.84375 521.800781 461.421875 521.71875 461.007812 C 521.632812 460.59375 521.511719 460.191406 521.351562 459.800781 C 521.1875 459.410156 520.988281 459.039062 520.753906 458.6875 C 520.519531 458.335938 520.253906 458.011719 519.953125 457.710938 C 519.652344 457.410156 519.328125 457.144531 518.976562 456.910156 C 518.625 456.675781 518.253906 456.476562 517.863281 456.3125 C 517.472656 456.152344 517.070312 456.03125 516.65625 455.945312 C 516.242188 455.863281 515.820312 455.824219 515.398438 455.820312 L 491.953125 455.820312 L 491.953125 447.484375 L 515.398438 447.484375 C 515.820312 447.484375 516.242188 447.441406 516.65625 447.359375 C 517.070312 447.277344 517.472656 447.15625 517.863281 446.992188 C 518.253906 446.832031 518.625 446.632812 518.976562 446.398438 C 519.328125 446.160156 519.652344 445.894531 519.953125 445.597656 C 520.253906 445.296875 520.519531 444.972656 520.753906 444.621094 C 520.988281 444.269531 521.1875 443.898438 521.351562 443.507812 C 521.511719 443.117188 521.632812 442.714844 521.71875 442.296875 C 521.800781 441.882812 521.839844 441.464844 521.84375 441.042969 L 521.84375 431.027344 C 521.839844 430.601562 521.800781 430.183594 521.71875 429.769531 C 521.632812 429.355469 521.511719 428.953125 521.351562 428.5625 C 521.1875 428.171875 520.988281 427.800781 520.753906 427.449219 C 520.519531 427.097656 520.253906 426.769531 519.953125 426.472656 C 519.652344 426.171875 519.328125 425.90625 518.976562 425.671875 C 518.625 425.433594 518.253906 425.238281 517.863281 425.074219 C 517.472656 424.914062 517.070312 424.789062 516.65625 424.707031 C 516.242188 424.625 515.820312 424.582031 515.398438 424.582031 L 491.953125 424.582031 L 491.953125 424.230469 C 491.953125 423.476562 491.882812 422.726562 491.742188 421.984375 C 491.597656 421.246094 491.386719 420.523438 491.109375 419.824219 C 490.828125 419.121094 490.484375 418.453125 490.078125 417.820312 C 489.667969 417.183594 489.203125 416.59375 488.683594 416.046875 C 488.164062 415.5 487.597656 415.007812 486.980469 414.570312 C 486.367188 414.132812 485.714844 413.757812 485.03125 413.441406 C 484.34375 413.128906 483.632812 412.882812 482.898438 412.707031 C 482.167969 412.527344 481.421875 412.421875 480.667969 412.386719 L 480.667969 389.382812 C 480.667969 388.957031 480.625 388.539062 480.542969 388.125 C 480.460938 387.710938 480.339844 387.308594 480.175781 386.917969 C 480.015625 386.527344 479.816406 386.15625 479.582031 385.804688 C 479.34375 385.453125 479.078125 385.125 478.78125 384.828125 C 478.480469 384.527344 478.15625 384.261719 477.804688 384.027344 C 477.453125 383.789062 477.082031 383.59375 476.691406 383.429688 C 476.300781 383.269531 475.898438 383.144531 475.480469 383.0625 C 475.066406 382.980469 474.648438 382.9375 474.226562 382.9375 L 464.210938 382.9375 C 463.785156 382.9375 463.367188 382.980469 462.953125 383.0625 C 462.539062 383.144531 462.136719 383.269531 461.746094 383.429688 C 461.355469 383.59375 460.984375 383.789062 460.632812 384.027344 C 460.28125 384.261719 459.953125 384.527344 459.65625 384.828125 C 459.355469 385.125 459.089844 385.453125 458.855469 385.804688 C 458.617188 386.15625 458.421875 386.527344 458.257812 386.917969 C 458.097656 387.308594 457.972656 387.710938 457.890625 388.125 C 457.808594 388.539062 457.765625 388.957031 457.765625 389.382812 L 457.765625 412.371094 L 447.074219 412.371094 L 447.074219 389.382812 C 447.074219 388.957031 447.03125 388.539062 446.949219 388.125 C 446.867188 387.710938 446.742188 387.308594 446.582031 386.917969 C 446.421875 386.527344 446.222656 386.15625 445.988281 385.804688 C 445.75 385.453125 445.484375 385.125 445.183594 384.828125 C 444.886719 384.527344 444.5625 384.261719 444.210938 384.027344 C 443.859375 383.789062 443.488281 383.59375 443.097656 383.429688 C 442.707031 383.269531 442.300781 383.144531 441.886719 383.0625 C 441.472656 382.980469 441.054688 382.9375 440.632812 382.9375 L 430.613281 382.9375 C 430.191406 382.9375 429.773438 382.980469 429.359375 383.0625 C 428.945312 383.144531 428.539062 383.269531 428.148438 383.429688 C 427.757812 383.59375 427.386719 383.789062 427.035156 384.027344 C 426.683594 384.261719 426.359375 384.527344 426.0625 384.828125 C 425.761719 385.125 425.496094 385.453125 425.257812 385.804688 C 425.023438 386.15625 424.824219 386.527344 424.664062 386.917969 C 424.5 387.308594 424.378906 387.710938 424.296875 388.125 C 424.214844 388.539062 424.171875 388.957031 424.171875 389.382812 L 424.171875 412.371094 L 413.828125 412.371094 L 413.828125 389.382812 C 413.828125 388.957031 413.785156 388.539062 413.703125 388.125 C 413.621094 387.710938 413.496094 387.308594 413.335938 386.917969 C 413.171875 386.527344 412.976562 386.15625 412.738281 385.804688 C 412.503906 385.453125 412.238281 385.125 411.9375 384.828125 C 411.640625 384.527344 411.3125 384.261719 410.960938 384.027344 C 410.609375 383.789062 410.238281 383.59375 409.847656 383.429688 C 409.457031 383.269531 409.054688 383.144531 408.640625 383.0625 C 408.226562 382.980469 407.808594 382.9375 407.382812 382.9375 L 397.367188 382.9375 C 396.945312 382.9375 396.527344 382.980469 396.113281 383.0625 C 395.695312 383.144531 395.292969 383.269531 394.902344 383.429688 C 394.511719 383.59375 394.140625 383.789062 393.789062 384.027344 C 393.4375 384.261719 393.113281 384.527344 392.8125 384.828125 C 392.515625 385.125 392.25 385.453125 392.011719 385.804688 C 391.777344 386.15625 391.578125 386.527344 391.417969 386.917969 C 391.253906 387.308594 391.132812 387.710938 391.050781 388.125 C 390.96875 388.539062 390.925781 388.957031 390.925781 389.382812 L 390.925781 412.371094 L 380.234375 412.371094 L 380.234375 389.382812 C 380.234375 388.957031 380.191406 388.539062 380.109375 388.125 C 380.027344 387.710938 379.902344 387.308594 379.742188 386.917969 C 379.578125 386.527344 379.378906 386.15625 379.144531 385.804688 C 378.910156 385.453125 378.644531 385.125 378.34375 384.828125 C 378.046875 384.527344 377.71875 384.261719 377.367188 384.027344 C 377.015625 383.789062 376.644531 383.59375 376.253906 383.429688 C 375.863281 383.269531 375.460938 383.144531 375.046875 383.0625 C 374.632812 382.980469 374.214844 382.9375 373.789062 382.9375 L 363.773438 382.9375 C 363.351562 382.9375 362.933594 382.980469 362.515625 383.0625 C 362.101562 383.144531 361.699219 383.269531 361.308594 383.429688 C 360.917969 383.59375 360.546875 383.789062 360.195312 384.027344 C 359.84375 384.261719 359.519531 384.527344 359.21875 384.828125 C 358.921875 385.125 358.652344 385.453125 358.417969 385.804688 C 358.183594 386.15625 357.984375 386.527344 357.824219 386.917969 C 357.660156 387.308594 357.539062 387.710938 357.457031 388.125 C 357.371094 388.539062 357.332031 388.957031 357.332031 389.382812 L 357.332031 412.371094 L 346.988281 412.371094 L 346.988281 389.382812 C 346.988281 388.957031 346.945312 388.539062 346.863281 388.125 C 346.777344 387.710938 346.65625 387.308594 346.496094 386.917969 C 346.332031 386.527344 346.132812 386.15625 345.898438 385.804688 C 345.664062 385.453125 345.398438 385.125 345.097656 384.828125 C 344.796875 384.527344 344.472656 384.261719 344.121094 384.027344 C 343.769531 383.789062 343.398438 383.59375 343.007812 383.429688 C 342.617188 383.269531 342.214844 383.144531 341.800781 383.0625 C 341.386719 382.980469 340.964844 382.9375 340.542969 382.9375 L 330.527344 382.9375 C 330.105469 382.9375 329.683594 382.980469 329.269531 383.0625 C 328.855469 383.144531 328.453125 383.269531 328.0625 383.429688 C 327.671875 383.59375 327.300781 383.789062 326.949219 384.027344 C 326.597656 384.261719 326.273438 384.527344 325.972656 384.828125 C 325.675781 385.125 325.40625 385.453125 325.171875 385.804688 C 324.9375 386.15625 324.738281 386.527344 324.578125 386.917969 C 324.414062 387.308594 324.292969 387.710938 324.210938 388.125 C 324.125 388.539062 324.085938 388.957031 324.085938 389.382812 L 324.085938 412.375 C 323.308594 412.378906 322.542969 412.460938 321.785156 412.617188 C 321.027344 412.773438 320.292969 413.003906 319.578125 413.304688 C 318.867188 413.605469 318.191406 413.972656 317.550781 414.40625 C 316.90625 414.839844 316.316406 415.332031 315.769531 415.882812 C 315.226562 416.433594 314.742188 417.03125 314.3125 417.675781 C 313.886719 418.320312 313.523438 419 313.230469 419.71875 C 312.9375 420.433594 312.714844 421.171875 312.566406 421.929688 C 312.417969 422.6875 312.34375 423.457031 312.34375 424.230469 L 312.34375 424.582031 L 289.351562 424.582031 C 288.929688 424.582031 288.511719 424.625 288.097656 424.707031 C 287.683594 424.789062 287.28125 424.914062 286.890625 425.074219 C 286.5 425.238281 286.128906 425.433594 285.777344 425.671875 C 285.425781 425.90625 285.097656 426.171875 284.800781 426.472656 C 284.5 426.769531 284.234375 427.097656 284 427.449219 C 283.761719 427.800781 283.566406 428.171875 283.402344 428.5625 C 283.242188 428.953125 283.117188 429.355469 283.035156 429.769531 C 282.953125 430.183594 282.910156 430.601562 282.910156 431.027344 L 282.910156 441.042969 C 282.910156 441.464844 282.953125 441.882812 283.035156 442.296875 C 283.117188 442.714844 283.242188 443.117188 283.402344 443.507812 C 283.566406 443.898438 283.761719 444.269531 284 444.621094 C 284.234375 444.972656 284.5 445.296875 284.800781 445.597656 C 285.097656 445.894531 285.425781 446.160156 285.777344 446.398438 C 286.128906 446.632812 286.5 446.832031 286.890625 446.992188 C 287.28125 447.15625 287.683594 447.277344 288.097656 447.359375 C 288.511719 447.441406 288.929688 447.484375 289.351562 447.484375 L 312.34375 447.484375 L 312.34375 455.820312 L 289.351562 455.820312 C 288.929688 455.824219 288.511719 455.863281 288.097656 455.945312 C 287.683594 456.03125 287.28125 456.152344 286.890625 456.3125 C 286.5 456.476562 286.128906 456.675781 285.777344 456.910156 C 285.425781 457.144531 285.097656 457.410156 284.800781 457.710938 C 284.5 458.011719 284.234375 458.335938 284 458.6875 C 283.761719 459.039062 283.566406 459.410156 283.402344 459.800781 C 283.242188 460.191406 283.117188 460.59375 283.035156 461.007812 C 282.953125 461.421875 282.910156 461.84375 282.910156 462.265625 L 282.910156 472.28125 C 282.910156 472.703125 282.953125 473.125 283.035156 473.539062 C 283.117188 473.953125 283.242188 474.355469 283.402344 474.746094 C 283.566406 475.136719 283.761719 475.507812 284 475.859375 C 284.234375 476.210938 284.5 476.535156 284.800781 476.835938 C 285.097656 477.132812 285.425781 477.402344 285.777344 477.636719 C 286.128906 477.871094 286.5 478.070312 286.890625 478.230469 C 287.28125 478.394531 287.683594 478.515625 288.097656 478.597656 C 288.511719 478.683594 288.929688 478.722656 289.351562 478.722656 L 312.34375 478.722656 L 312.34375 489.070312 L 289.351562 489.070312 C 288.929688 489.070312 288.511719 489.109375 288.097656 489.195312 C 287.683594 489.277344 287.28125 489.398438 286.890625 489.5625 C 286.5 489.722656 286.128906 489.921875 285.777344 490.15625 C 285.425781 490.390625 285.097656 490.660156 284.800781 490.957031 C 284.5 491.257812 284.234375 491.582031 284 491.933594 C 283.761719 492.285156 283.566406 492.65625 283.402344 493.046875 C 283.242188 493.4375 283.117188 493.839844 283.035156 494.253906 C 282.953125 494.671875 282.910156 495.089844 282.910156 495.511719 L 282.910156 505.527344 C 282.910156 505.949219 282.953125 506.371094 283.035156 506.785156 C 283.117188 507.199219 283.242188 507.601562 283.402344 507.992188 C 283.566406 508.382812 283.761719 508.753906 284 509.105469 C 284.234375 509.457031 284.5 509.78125 284.800781 510.082031 C 285.097656 510.382812 285.425781 510.648438 285.777344 510.882812 C 286.128906 511.117188 286.5 511.316406 286.890625 511.480469 C 287.28125 511.640625 287.683594 511.761719 288.097656 511.847656 C 288.511719 511.929688 288.929688 511.972656 289.351562 511.972656 L 312.34375 511.972656 L 312.34375 522.664062 L 288.816406 522.664062 C 288.394531 522.664062 287.976562 522.707031 287.5625 522.789062 C 287.148438 522.871094 286.742188 522.992188 286.351562 523.15625 C 285.960938 523.316406 285.589844 523.515625 285.238281 523.75 C 284.886719 523.984375 284.5625 524.253906 284.265625 524.550781 C 283.964844 524.851562 283.699219 525.175781 283.460938 525.527344 C 283.226562 525.878906 283.027344 526.25 282.867188 526.640625 C 282.707031 527.03125 282.582031 527.433594 282.5 527.847656 C 282.417969 528.265625 282.375 528.683594 282.375 529.105469 L 282.375 539.121094 C 282.375 539.546875 282.417969 539.964844 282.5 540.378906 C 282.582031 540.792969 282.707031 541.195312 282.867188 541.585938 C 283.027344 541.976562 283.226562 542.347656 283.460938 542.699219 C 283.699219 543.050781 283.964844 543.378906 284.265625 543.675781 C 284.5625 543.976562 284.886719 544.242188 285.238281 544.476562 C 285.589844 544.710938 285.960938 544.910156 286.351562 545.074219 C 286.742188 545.234375 287.148438 545.359375 287.5625 545.441406 C 287.976562 545.523438 288.394531 545.566406 288.816406 545.566406 L 312.34375 545.566406 L 312.34375 555.910156 L 288.816406 555.910156 C 288.394531 555.910156 287.976562 555.953125 287.5625 556.035156 C 287.148438 556.117188 286.742188 556.238281 286.351562 556.402344 C 285.960938 556.5625 285.589844 556.761719 285.238281 556.996094 C 284.886719 557.234375 284.5625 557.5 284.265625 557.800781 C 283.964844 558.097656 283.699219 558.421875 283.460938 558.773438 C 283.226562 559.125 283.027344 559.496094 282.867188 559.886719 C 282.707031 560.277344 282.582031 560.679688 282.5 561.097656 C 282.417969 561.511719 282.375 561.929688 282.375 562.351562 L 282.375 572.371094 C 282.375 572.792969 282.417969 573.210938 282.5 573.625 C 282.582031 574.039062 282.703125 574.441406 282.867188 574.832031 C 283.027344 575.222656 283.226562 575.59375 283.460938 575.945312 C 283.699219 576.296875 283.964844 576.625 284.265625 576.921875 C 284.5625 577.222656 284.886719 577.488281 285.238281 577.722656 C 285.589844 577.960938 285.960938 578.15625 286.351562 578.320312 C 286.742188 578.480469 287.148438 578.605469 287.5625 578.6875 C 287.976562 578.769531 288.394531 578.8125 288.816406 578.8125 L 312.34375 578.8125 L 312.34375 579.964844 C 312.34375 580.738281 312.417969 581.503906 312.566406 582.265625 C 312.714844 583.023438 312.9375 583.761719 313.230469 584.476562 C 313.523438 585.195312 313.886719 585.875 314.3125 586.519531 C 314.742188 587.164062 315.226562 587.761719 315.769531 588.3125 C 316.316406 588.863281 316.90625 589.355469 317.550781 589.789062 C 318.191406 590.222656 318.867188 590.589844 319.582031 590.890625 C 320.292969 591.191406 321.027344 591.417969 321.785156 591.578125 C 322.542969 591.734375 323.308594 591.816406 324.085938 591.820312 L 324.085938 614.8125 C 324.085938 615.238281 324.125 615.65625 324.210938 616.070312 C 324.292969 616.484375 324.414062 616.886719 324.578125 617.277344 C 324.738281 617.667969 324.9375 618.039062 325.171875 618.390625 C 325.40625 618.742188 325.675781 619.070312 325.972656 619.367188 C 326.273438 619.667969 326.597656 619.933594 326.949219 620.167969 C 327.300781 620.402344 327.671875 620.601562 328.0625 620.765625 C 328.453125 620.925781 328.855469 621.050781 329.269531 621.132812 C 329.683594 621.214844 330.105469 621.257812 330.527344 621.257812 L 340.542969 621.257812 C 340.964844 621.257812 341.386719 621.214844 341.800781 621.132812 C 342.214844 621.050781 342.617188 620.925781 343.007812 620.765625 C 343.398438 620.601562 343.769531 620.402344 344.121094 620.167969 C 344.472656 619.933594 344.796875 619.667969 345.097656 619.367188 C 345.394531 619.070312 345.664062 618.742188 345.898438 618.390625 C 346.132812 618.039062 346.332031 617.667969 346.496094 617.277344 C 346.65625 616.886719 346.777344 616.484375 346.863281 616.070312 C 346.945312 615.65625 346.984375 615.238281 346.988281 614.8125 L 346.988281 591.824219 L 357.332031 591.824219 L 357.332031 614.8125 C 357.332031 615.238281 357.371094 615.65625 357.457031 616.070312 C 357.539062 616.484375 357.660156 616.886719 357.824219 617.277344 C 357.984375 617.667969 358.183594 618.039062 358.417969 618.390625 C 358.652344 618.742188 358.921875 619.070312 359.21875 619.367188 C 359.519531 619.667969 359.84375 619.933594 360.195312 620.167969 C 360.546875 620.402344 360.917969 620.601562 361.308594 620.765625 C 361.699219 620.925781 362.101562 621.050781 362.515625 621.132812 C 362.933594 621.214844 363.351562 621.257812 363.773438 621.257812 L 373.789062 621.257812 C 374.214844 621.257812 374.632812 621.214844 375.046875 621.132812 C 375.460938 621.050781 375.863281 620.925781 376.253906 620.765625 C 376.644531 620.601562 377.015625 620.402344 377.367188 620.167969 C 377.71875 619.933594 378.046875 619.667969 378.34375 619.367188 C 378.644531 619.070312 378.910156 618.742188 379.144531 618.390625 C 379.378906 618.039062 379.578125 617.667969 379.742188 617.277344 C 379.902344 616.886719 380.027344 616.484375 380.109375 616.070312 C 380.191406 615.65625 380.234375 615.238281 380.234375 614.8125 L 380.234375 591.824219 L 390.925781 591.824219 L 390.925781 614.8125 C 390.925781 615.238281 390.96875 615.65625 391.050781 616.070312 C 391.132812 616.484375 391.253906 616.886719 391.417969 617.277344 C 391.578125 617.667969 391.777344 618.039062 392.011719 618.390625 C 392.25 618.742188 392.515625 619.070312 392.8125 619.367188 C 393.113281 619.667969 393.4375 619.933594 393.789062 620.167969 C 394.140625 620.402344 394.511719 620.601562 394.902344 620.765625 C 395.292969 620.925781 395.695312 621.050781 396.113281 621.132812 C 396.527344 621.214844 396.945312 621.257812 397.367188 621.257812 L 407.382812 621.257812 C 407.808594 621.257812 408.226562 621.214844 408.640625 621.132812 C 409.054688 621.050781 409.457031 620.925781 409.847656 620.765625 C 410.238281 620.601562 410.609375 620.402344 410.960938 620.167969 C 411.3125 619.933594 411.640625 619.667969 411.9375 619.367188 C 412.238281 619.070312 412.503906 618.742188 412.738281 618.390625 C 412.976562 618.039062 413.171875 617.667969 413.335938 617.277344 C 413.496094 616.886719 413.621094 616.484375 413.703125 616.070312 C 413.785156 615.65625 413.828125 615.238281 413.828125 614.8125 L 413.828125 591.824219 L 423.636719 591.824219 L 423.636719 614.8125 C 423.636719 615.238281 423.679688 615.65625 423.761719 616.070312 C 423.84375 616.484375 423.964844 616.886719 424.128906 617.277344 C 424.289062 617.667969 424.488281 618.039062 424.722656 618.390625 C 424.960938 618.742188 425.226562 619.070312 425.523438 619.367188 C 425.824219 619.667969 426.148438 619.933594 426.5 620.167969 C 426.851562 620.402344 427.222656 620.601562 427.613281 620.765625 C 428.003906 620.925781 428.40625 621.050781 428.824219 621.132812 C 429.238281 621.214844 429.65625 621.257812 430.078125 621.257812 L 440.09375 621.257812 C 440.519531 621.257812 440.9375 621.214844 441.351562 621.132812 C 441.765625 621.050781 442.167969 620.925781 442.558594 620.765625 C 442.949219 620.601562 443.320312 620.402344 443.671875 620.167969 C 444.023438 619.933594 444.351562 619.667969 444.648438 619.367188 C 444.949219 619.070312 445.214844 618.742188 445.449219 618.390625 C 445.6875 618.039062 445.882812 617.667969 446.046875 617.277344 C 446.207031 616.886719 446.332031 616.484375 446.414062 616.070312 C 446.496094 615.65625 446.539062 615.238281 446.539062 614.8125 L 446.539062 591.824219 L 457.765625 591.824219 L 457.765625 614.8125 C 457.765625 615.238281 457.808594 615.65625 457.890625 616.070312 C 457.972656 616.484375 458.097656 616.886719 458.257812 617.277344 C 458.421875 617.667969 458.617188 618.039062 458.855469 618.390625 C 459.089844 618.742188 459.355469 619.070312 459.65625 619.367188 C 459.953125 619.667969 460.28125 619.933594 460.632812 620.167969 C 460.984375 620.402344 461.355469 620.601562 461.746094 620.765625 C 462.136719 620.925781 462.539062 621.050781 462.953125 621.132812 C 463.367188 621.214844 463.785156 621.257812 464.210938 621.257812 L 474.226562 621.257812 C 474.648438 621.257812 475.066406 621.214844 475.480469 621.132812 C 475.898438 621.050781 476.300781 620.925781 476.691406 620.765625 C 477.082031 620.601562 477.453125 620.402344 477.804688 620.167969 C 478.15625 619.933594 478.480469 619.667969 478.78125 619.367188 C 479.078125 619.070312 479.34375 618.742188 479.582031 618.390625 C 479.816406 618.039062 480.015625 617.667969 480.175781 617.277344 C 480.339844 616.886719 480.460938 616.484375 480.542969 616.070312 C 480.625 615.65625 480.667969 615.238281 480.667969 614.8125 L 480.667969 591.808594 C 481.421875 591.773438 482.167969 591.667969 482.898438 591.488281 C 483.632812 591.3125 484.34375 591.066406 485.03125 590.753906 C 485.714844 590.4375 486.367188 590.0625 486.980469 589.625 C 487.597656 589.1875 488.164062 588.695312 488.683594 588.148438 C 489.203125 587.601562 489.667969 587.011719 490.078125 586.375 C 490.484375 585.742188 490.828125 585.074219 491.109375 584.371094 C 491.386719 583.671875 491.597656 582.949219 491.742188 582.207031 C 491.882812 581.46875 491.953125 580.71875 491.953125 579.964844 L 491.953125 578.8125 L 515.933594 578.8125 C 516.359375 578.8125 516.777344 578.769531 517.191406 578.6875 C 517.605469 578.605469 518.007812 578.480469 518.398438 578.320312 C 518.789062 578.15625 519.160156 577.960938 519.511719 577.722656 C 519.863281 577.488281 520.191406 577.222656 520.488281 576.921875 C 520.789062 576.625 521.054688 576.296875 521.289062 575.945312 C 521.523438 575.59375 521.722656 575.222656 521.886719 574.832031 C 522.046875 574.441406 522.171875 574.039062 522.253906 573.625 C 522.335938 573.210938 522.378906 572.792969 522.378906 572.371094 L 522.378906 562.351562 C 522.378906 561.929688 522.335938 561.511719 522.253906 561.097656 C 522.171875 560.679688 522.046875 560.277344 521.886719 559.886719 C 521.722656 559.496094 521.523438 559.125 521.289062 558.773438 C 521.054688 558.421875 520.789062 558.097656 520.488281 557.800781 C 520.191406 557.5 519.863281 557.234375 519.511719 556.996094 C 519.160156 556.761719 518.789062 556.5625 518.398438 556.402344 C 518.007812 556.238281 517.605469 556.117188 517.191406 556.035156 C 516.777344 555.953125 516.359375 555.910156 515.933594 555.910156 L 491.953125 555.910156 L 491.953125 545.566406 Z M 492.488281 530.179688 L 514.859375 530.179688 L 514.859375 538.046875 L 492.488281 538.046875 Z M 492.40625 496.585938 L 514.324219 496.585938 L 514.324219 504.453125 L 492.40625 504.453125 Z M 492.40625 463.339844 L 514.324219 463.339844 L 514.324219 471.207031 L 492.40625 471.207031 Z M 492.40625 432.097656 L 514.324219 432.097656 L 514.324219 439.96875 L 492.40625 439.96875 Z M 312.265625 538.046875 L 289.890625 538.046875 L 289.890625 530.179688 L 312.265625 530.179688 Z M 312.265625 571.296875 L 289.890625 571.296875 L 289.890625 563.425781 L 312.265625 563.425781 Z M 492.488281 563.425781 L 514.859375 563.425781 L 514.859375 571.296875 L 492.488281 571.296875 Z M 465.28125 390.453125 L 473.152344 390.453125 L 473.152344 412.371094 L 465.28125 412.371094 Z M 431.6875 390.453125 L 439.558594 390.453125 L 439.558594 412.371094 L 431.6875 412.371094 Z M 398.441406 390.453125 L 406.3125 390.453125 L 406.3125 412.371094 L 398.441406 412.371094 Z M 364.847656 390.453125 L 372.714844 390.453125 L 372.714844 412.371094 L 364.847656 412.371094 Z M 331.601562 390.453125 L 339.46875 390.453125 L 339.46875 412.371094 L 331.601562 412.371094 Z M 290.425781 439.96875 L 290.425781 432.097656 L 312.34375 432.097656 L 312.34375 439.96875 Z M 290.425781 471.207031 L 290.425781 463.339844 L 312.34375 463.339844 L 312.34375 471.207031 Z M 290.425781 504.453125 L 290.425781 496.585938 L 312.34375 496.585938 L 312.34375 504.453125 Z M 339.46875 613.738281 L 331.601562 613.738281 L 331.601562 592.414062 L 339.46875 592.414062 Z M 372.714844 613.738281 L 364.847656 613.738281 L 364.847656 591.824219 L 372.714844 591.824219 Z M 406.3125 613.738281 L 398.441406 613.738281 L 398.441406 591.824219 L 406.3125 591.824219 Z M 439.023438 613.738281 L 431.152344 613.738281 L 431.152344 591.824219 L 439.023438 591.824219 Z M 473.152344 613.738281 L 465.28125 613.738281 L 465.28125 591.824219 L 473.152344 591.824219 Z M 484.433594 579.964844 C 484.4375 580.246094 484.410156 580.527344 484.359375 580.804688 C 484.304688 581.082031 484.222656 581.351562 484.117188 581.617188 C 484.011719 581.878906 483.878906 582.125 483.726562 582.363281 C 483.570312 582.597656 483.390625 582.816406 483.195312 583.019531 C 482.996094 583.222656 482.78125 583.402344 482.546875 583.558594 C 482.3125 583.71875 482.0625 583.855469 481.804688 583.964844 C 481.542969 584.074219 481.273438 584.160156 480.996094 584.214844 C 480.722656 584.273438 480.441406 584.304688 480.15625 584.304688 L 324.136719 584.304688 C 323.855469 584.304688 323.574219 584.273438 323.300781 584.214844 C 323.023438 584.160156 322.753906 584.074219 322.492188 583.964844 C 322.234375 583.855469 321.984375 583.71875 321.75 583.558594 C 321.515625 583.402344 321.300781 583.222656 321.101562 583.019531 C 320.902344 582.816406 320.726562 582.597656 320.570312 582.363281 C 320.417969 582.125 320.285156 581.878906 320.179688 581.617188 C 320.074219 581.351562 319.992188 581.082031 319.9375 580.804688 C 319.886719 580.527344 319.859375 580.246094 319.863281 579.964844 L 319.863281 424.230469 C 319.859375 423.945312 319.886719 423.667969 319.9375 423.390625 C 319.992188 423.113281 320.074219 422.839844 320.179688 422.578125 C 320.285156 422.316406 320.417969 422.066406 320.570312 421.832031 C 320.726562 421.59375 320.902344 421.375 321.101562 421.175781 C 321.300781 420.972656 321.515625 420.792969 321.75 420.632812 C 321.984375 420.476562 322.234375 420.339844 322.492188 420.230469 C 322.753906 420.121094 323.023438 420.035156 323.300781 419.980469 C 323.574219 419.921875 323.855469 419.890625 324.136719 419.890625 L 480.15625 419.890625 C 480.441406 419.890625 480.722656 419.921875 480.996094 419.980469 C 481.273438 420.035156 481.542969 420.121094 481.804688 420.230469 C 482.0625 420.339844 482.3125 420.476562 482.546875 420.632812 C 482.78125 420.792969 482.996094 420.972656 483.195312 421.175781 C 483.390625 421.375 483.570312 421.59375 483.726562 421.832031 C 483.878906 422.066406 484.011719 422.316406 484.117188 422.578125 C 484.222656 422.839844 484.304688 423.113281 484.359375 423.390625 C 484.410156 423.667969 484.4375 423.945312 484.433594 424.230469 Z M 484.433594 579.964844 " fill-opacity="1" fill-rule="nonzero"/></g><path fill="#ffffff" d="M 472.027344 444.703125 C 471.53125 444.703125 471.050781 444.796875 470.589844 444.988281 C 470.128906 445.179688 469.722656 445.449219 469.371094 445.804688 C 469.019531 446.15625 468.746094 446.5625 468.558594 447.023438 C 468.367188 447.484375 468.269531 447.960938 468.269531 448.460938 L 468.269531 555.433594 C 468.269531 555.933594 468.367188 556.410156 468.558594 556.871094 C 468.746094 557.332031 469.019531 557.738281 469.371094 558.089844 C 469.722656 558.445312 470.128906 558.714844 470.589844 558.90625 C 471.050781 559.097656 471.53125 559.191406 472.027344 559.191406 C 472.527344 559.191406 473.007812 559.097656 473.46875 558.90625 C 473.929688 558.714844 474.335938 558.445312 474.6875 558.089844 C 475.039062 557.738281 475.3125 557.332031 475.5 556.871094 C 475.691406 556.410156 475.789062 555.933594 475.789062 555.433594 L 475.789062 448.460938 C 475.789062 447.960938 475.691406 447.484375 475.5 447.023438 C 475.3125 446.5625 475.039062 446.15625 474.6875 445.804688 C 474.335938 445.449219 473.929688 445.179688 473.46875 444.988281 C 473.007812 444.796875 472.527344 444.703125 472.027344 444.703125 Z M 472.027344 444.703125 " fill-opacity="1" fill-rule="nonzero"/><path fill="#ffffff" d="M 331.960938 444.703125 C 331.460938 444.703125 330.980469 444.796875 330.523438 444.988281 C 330.0625 445.179688 329.65625 445.449219 329.300781 445.804688 C 328.949219 446.15625 328.679688 446.5625 328.488281 447.023438 C 328.296875 447.484375 328.203125 447.960938 328.203125 448.460938 L 328.203125 554.683594 C 328.203125 555.183594 328.296875 555.664062 328.488281 556.121094 C 328.679688 556.582031 328.949219 556.988281 329.300781 557.34375 C 329.65625 557.695312 330.0625 557.964844 330.523438 558.15625 C 330.980469 558.347656 331.460938 558.441406 331.960938 558.441406 C 332.457031 558.441406 332.9375 558.347656 333.398438 558.15625 C 333.859375 557.964844 334.265625 557.695312 334.617188 557.34375 C 334.96875 556.988281 335.242188 556.582031 335.433594 556.121094 C 335.625 555.664062 335.71875 555.183594 335.71875 554.683594 L 335.71875 448.460938 C 335.71875 447.960938 335.625 447.484375 335.433594 447.023438 C 335.242188 446.5625 334.96875 446.15625 334.617188 445.804688 C 334.265625 445.449219 333.859375 445.179688 333.398438 444.988281 C 332.9375 444.796875 332.457031 444.703125 331.960938 444.703125 Z M 331.960938 444.703125 " fill-opacity="1" fill-rule="nonzero"/><path fill="#ffffff" d="M 450.503906 444.703125 L 405.152344 444.703125 L 405.152344 507.621094 C 405.535156 507.765625 405.90625 507.933594 406.265625 508.121094 C 406.628906 508.308594 406.980469 508.515625 407.316406 508.746094 C 407.65625 508.976562 407.980469 509.222656 408.289062 509.488281 C 408.597656 509.753906 408.890625 510.039062 409.167969 510.339844 C 409.441406 510.636719 409.699219 510.953125 409.941406 511.285156 C 410.179688 511.613281 410.402344 511.957031 410.601562 512.3125 C 410.800781 512.667969 410.980469 513.035156 411.136719 513.410156 C 411.296875 513.785156 411.429688 514.171875 411.542969 514.5625 C 411.65625 514.957031 411.746094 515.351562 411.816406 515.753906 C 411.882812 516.15625 411.925781 516.5625 411.945312 516.96875 C 411.964844 517.378906 411.960938 517.785156 411.9375 518.191406 C 411.910156 518.597656 411.859375 519.003906 411.785156 519.40625 C 411.710938 519.804688 411.613281 520.203125 411.496094 520.59375 C 411.375 520.984375 411.234375 521.363281 411.070312 521.738281 C 410.90625 522.113281 410.71875 522.476562 410.515625 522.828125 C 410.308594 523.179688 410.082031 523.519531 409.835938 523.84375 C 409.59375 524.171875 409.328125 524.480469 409.046875 524.777344 C 408.765625 525.074219 408.46875 525.351562 408.15625 525.613281 C 407.839844 525.875 407.515625 526.117188 407.171875 526.339844 C 406.832031 526.5625 406.476562 526.765625 406.113281 526.949219 C 405.746094 527.128906 405.371094 527.289062 404.988281 527.429688 C 404.605469 527.566406 404.214844 527.683594 403.816406 527.777344 C 403.421875 527.871094 403.019531 527.941406 402.613281 527.988281 C 402.207031 528.035156 401.800781 528.058594 401.394531 528.058594 C 400.984375 528.058594 400.578125 528.035156 400.171875 527.988281 C 399.769531 527.941406 399.367188 527.871094 398.96875 527.777344 C 398.574219 527.683594 398.183594 527.566406 397.796875 527.429688 C 397.414062 527.289062 397.039062 527.128906 396.675781 526.949219 C 396.308594 526.765625 395.957031 526.5625 395.613281 526.339844 C 395.273438 526.117188 394.945312 525.875 394.632812 525.613281 C 394.320312 525.351562 394.019531 525.074219 393.738281 524.777344 C 393.457031 524.480469 393.195312 524.171875 392.949219 523.84375 C 392.703125 523.519531 392.480469 523.179688 392.273438 522.828125 C 392.066406 522.476562 391.882812 522.113281 391.71875 521.738281 C 391.554688 521.363281 391.414062 520.984375 391.292969 520.59375 C 391.171875 520.203125 391.078125 519.804688 391.003906 519.40625 C 390.929688 519.003906 390.878906 518.601562 390.851562 518.191406 C 390.824219 517.785156 390.820312 517.378906 390.839844 516.96875 C 390.863281 516.5625 390.90625 516.15625 390.972656 515.753906 C 391.039062 515.351562 391.128906 514.957031 391.242188 514.5625 C 391.355469 514.171875 391.492188 513.785156 391.648438 513.410156 C 391.808594 513.035156 391.984375 512.667969 392.1875 512.3125 C 392.386719 511.957031 392.605469 511.613281 392.847656 511.285156 C 393.085938 510.953125 393.34375 510.640625 393.621094 510.339844 C 393.898438 510.039062 394.191406 509.753906 394.5 509.488281 C 394.808594 509.222656 395.132812 508.976562 395.46875 508.746094 C 395.808594 508.515625 396.15625 508.308594 396.519531 508.121094 C 396.882812 507.933594 397.253906 507.765625 397.636719 507.621094 L 397.636719 444.703125 L 354.246094 444.703125 C 353.648438 444.703125 353.054688 444.761719 352.46875 444.878906 C 351.882812 444.996094 351.3125 445.171875 350.761719 445.398438 C 350.207031 445.628906 349.683594 445.910156 349.183594 446.242188 C 348.6875 446.574219 348.226562 446.953125 347.804688 447.375 C 347.382812 447.796875 347.003906 448.257812 346.671875 448.757812 C 346.339844 449.253906 346.058594 449.777344 345.828125 450.332031 C 345.597656 450.882812 345.425781 451.453125 345.308594 452.039062 C 345.191406 452.628906 345.132812 453.21875 345.132812 453.816406 L 345.132812 550.078125 C 345.132812 550.675781 345.191406 551.269531 345.308594 551.855469 C 345.425781 552.441406 345.597656 553.011719 345.828125 553.5625 C 346.058594 554.117188 346.339844 554.640625 346.671875 555.140625 C 347.003906 555.636719 347.382812 556.097656 347.804688 556.519531 C 348.226562 556.941406 348.6875 557.320312 349.183594 557.652344 C 349.683594 557.984375 350.207031 558.265625 350.761719 558.496094 C 351.3125 558.726562 351.882812 558.898438 352.46875 559.015625 C 353.054688 559.132812 353.648438 559.191406 354.246094 559.191406 L 369.691406 559.191406 L 369.691406 491.871094 C 369.3125 491.710938 368.945312 491.535156 368.589844 491.332031 C 368.234375 491.132812 367.890625 490.914062 367.558594 490.675781 C 367.226562 490.433594 366.910156 490.175781 366.609375 489.902344 C 366.308594 489.625 366.027344 489.332031 365.757812 489.023438 C 365.492188 488.714844 365.242188 488.390625 365.011719 488.050781 C 364.785156 487.714844 364.574219 487.363281 364.386719 487 C 364.195312 486.640625 364.027344 486.265625 363.882812 485.886719 C 363.738281 485.503906 363.613281 485.117188 363.511719 484.71875 C 363.410156 484.324219 363.335938 483.921875 363.28125 483.519531 C 363.226562 483.113281 363.195312 482.707031 363.1875 482.296875 C 363.179688 481.890625 363.195312 481.480469 363.234375 481.074219 C 363.277344 480.667969 363.339844 480.265625 363.425781 479.867188 C 363.511719 479.46875 363.621094 479.074219 363.753906 478.6875 C 363.886719 478.300781 364.039062 477.921875 364.214844 477.554688 C 364.390625 477.1875 364.589844 476.828125 364.804688 476.480469 C 365.023438 476.136719 365.257812 475.804688 365.515625 475.484375 C 365.769531 475.167969 366.042969 474.863281 366.335938 474.578125 C 366.625 474.289062 366.933594 474.019531 367.253906 473.769531 C 367.578125 473.519531 367.914062 473.285156 368.261719 473.074219 C 368.609375 472.863281 368.96875 472.667969 369.339844 472.5 C 369.710938 472.328125 370.09375 472.179688 370.480469 472.054688 C 370.871094 471.925781 371.265625 471.820312 371.664062 471.742188 C 372.066406 471.660156 372.46875 471.601562 372.875 471.566406 C 373.28125 471.535156 373.691406 471.523438 374.097656 471.535156 C 374.507812 471.550781 374.914062 471.585938 375.316406 471.644531 C 375.722656 471.707031 376.121094 471.789062 376.515625 471.894531 C 376.910156 472 377.296875 472.128906 377.675781 472.28125 C 378.054688 472.433594 378.425781 472.605469 378.785156 472.800781 C 379.144531 472.992188 379.492188 473.207031 379.828125 473.441406 C 380.160156 473.675781 380.480469 473.929688 380.785156 474.199219 C 381.09375 474.472656 381.382812 474.761719 381.652344 475.066406 C 381.925781 475.371094 382.179688 475.6875 382.414062 476.023438 C 382.648438 476.359375 382.863281 476.703125 383.058594 477.0625 C 383.253906 477.421875 383.425781 477.792969 383.578125 478.171875 C 383.730469 478.550781 383.859375 478.9375 383.96875 479.332031 C 384.074219 479.726562 384.160156 480.125 384.222656 480.527344 C 384.28125 480.933594 384.320312 481.339844 384.332031 481.746094 C 384.347656 482.15625 384.335938 482.5625 384.304688 482.96875 C 384.269531 483.378906 384.214844 483.78125 384.132812 484.183594 C 384.054688 484.582031 383.949219 484.976562 383.824219 485.367188 C 383.699219 485.753906 383.550781 486.132812 383.382812 486.507812 C 383.210938 486.878906 383.019531 487.238281 382.808594 487.589844 C 382.597656 487.9375 382.367188 488.273438 382.117188 488.597656 C 381.863281 488.917969 381.597656 489.226562 381.3125 489.515625 C 381.023438 489.808594 380.722656 490.082031 380.40625 490.339844 C 380.085938 490.597656 379.753906 490.832031 379.410156 491.050781 C 379.0625 491.269531 378.707031 491.46875 378.339844 491.644531 C 377.96875 491.820312 377.59375 491.976562 377.207031 492.109375 L 377.207031 559.191406 L 426.402344 559.191406 L 426.402344 491.875 C 426.023438 491.71875 425.65625 491.542969 425.300781 491.34375 C 424.941406 491.144531 424.597656 490.925781 424.269531 490.683594 C 423.9375 490.445312 423.621094 490.1875 423.320312 489.914062 C 423.015625 489.636719 422.734375 489.34375 422.464844 489.035156 C 422.199219 488.726562 421.949219 488.40625 421.71875 488.066406 C 421.488281 487.730469 421.277344 487.378906 421.089844 487.019531 C 420.898438 486.65625 420.730469 486.285156 420.585938 485.902344 C 420.4375 485.523438 420.3125 485.132812 420.210938 484.738281 C 420.109375 484.34375 420.03125 483.941406 419.976562 483.539062 C 419.921875 483.132812 419.890625 482.726562 419.882812 482.316406 C 419.875 481.910156 419.890625 481.5 419.929688 481.09375 C 419.96875 480.6875 420.03125 480.285156 420.117188 479.886719 C 420.203125 479.484375 420.308594 479.09375 420.441406 478.707031 C 420.574219 478.320312 420.726562 477.941406 420.902344 477.574219 C 421.078125 477.203125 421.273438 476.847656 421.488281 476.5 C 421.707031 476.152344 421.941406 475.820312 422.199219 475.5 C 422.453125 475.183594 422.726562 474.878906 423.015625 474.589844 C 423.304688 474.304688 423.613281 474.035156 423.933594 473.78125 C 424.253906 473.53125 424.589844 473.296875 424.9375 473.085938 C 425.289062 472.871094 425.648438 472.679688 426.019531 472.507812 C 426.390625 472.335938 426.769531 472.1875 427.15625 472.058594 C 427.542969 471.933594 427.9375 471.828125 428.339844 471.746094 C 428.738281 471.664062 429.144531 471.605469 429.550781 471.570312 C 429.957031 471.535156 430.363281 471.523438 430.773438 471.535156 C 431.179688 471.550781 431.585938 471.585938 431.992188 471.644531 C 432.394531 471.703125 432.796875 471.785156 433.191406 471.890625 C 433.585938 471.996094 433.972656 472.125 434.351562 472.277344 C 434.730469 472.425781 435.101562 472.597656 435.460938 472.792969 C 435.820312 472.984375 436.167969 473.199219 436.503906 473.433594 C 436.839844 473.664062 437.160156 473.917969 437.464844 474.1875 C 437.773438 474.460938 438.0625 474.746094 438.332031 475.050781 C 438.605469 475.355469 438.859375 475.675781 439.097656 476.007812 C 439.332031 476.34375 439.546875 476.6875 439.742188 477.046875 C 439.9375 477.40625 440.113281 477.773438 440.265625 478.152344 C 440.417969 478.53125 440.546875 478.917969 440.65625 479.3125 C 440.765625 479.707031 440.847656 480.105469 440.910156 480.507812 C 440.972656 480.914062 441.011719 481.320312 441.027344 481.726562 C 441.039062 482.136719 441.03125 482.542969 441 482.949219 C 440.964844 483.359375 440.910156 483.761719 440.832031 484.164062 C 440.75 484.5625 440.648438 484.957031 440.523438 485.347656 C 440.398438 485.738281 440.25 486.117188 440.082031 486.488281 C 439.914062 486.859375 439.722656 487.222656 439.511719 487.570312 C 439.300781 487.921875 439.070312 488.257812 438.820312 488.582031 C 438.570312 488.902344 438.304688 489.210938 438.015625 489.503906 C 437.730469 489.796875 437.429688 490.070312 437.113281 490.328125 C 436.796875 490.585938 436.464844 490.820312 436.117188 491.039062 C 435.773438 491.257812 435.417969 491.457031 435.050781 491.636719 C 434.679688 491.8125 434.304688 491.96875 433.917969 492.101562 L 433.917969 559.191406 L 450.503906 559.191406 C 451.105469 559.191406 451.695312 559.132812 452.285156 559.015625 C 452.871094 558.898438 453.441406 558.726562 453.992188 558.496094 C 454.546875 558.265625 455.070312 557.984375 455.566406 557.652344 C 456.066406 557.320312 456.523438 556.941406 456.949219 556.519531 C 457.371094 556.097656 457.75 555.636719 458.082031 555.140625 C 458.414062 554.640625 458.695312 554.117188 458.925781 553.5625 C 459.152344 553.011719 459.328125 552.441406 459.445312 551.855469 C 459.5625 551.269531 459.621094 550.675781 459.621094 550.078125 L 459.621094 453.816406 C 459.621094 453.21875 459.5625 452.628906 459.445312 452.039062 C 459.328125 451.453125 459.152344 450.882812 458.925781 450.332031 C 458.695312 449.777344 458.414062 449.253906 458.082031 448.757812 C 457.75 448.257812 457.371094 447.796875 456.949219 447.375 C 456.523438 446.953125 456.066406 446.574219 455.566406 446.242188 C 455.070312 445.910156 454.546875 445.628906 453.992188 445.398438 C 453.441406 445.171875 452.871094 444.996094 452.285156 444.878906 C 451.695312 444.761719 451.105469 444.703125 450.503906 444.703125 Z M 450.503906 444.703125 " fill-opacity="1" fill-rule="nonzero"/></svg>